<svg width="17" height="17" viewBox="0 0 17 17" fill="none" xmlns="http://www.w3.org/2000/svg">
<path fill-rule="evenodd" clip-rule="evenodd" d="M7.5 0C3.63401 0 0.5 3.13401 0.5 7C0.5 10.866 3.63401 14 7.5 14C9.07234 14 10.5236 13.4816 11.6922 12.6064L15.2071 16.1213L16.6213 14.7071L13.1064 11.1922C13.9816 10.0236 14.5 8.57233 14.5 7C14.5 3.13401 11.366 0 7.5 0ZM2.5 7C2.5 4.23858 4.73858 2 7.5 2C10.2614 2 12.5 4.23858 12.5 7C12.5 9.76142 10.2614 12 7.5 12C4.73858 12 2.5 9.76142 2.5 7Z" fill="white"/>
</svg>
